<svg xmlns="http://www.w3.org/2000/svg" xmlns:xlink="http://www.w3.org/1999/xlink" width="500" zoomAndPan="magnify" viewBox="0 0 375 374.999991" height="500" preserveAspectRatio="xMidYMid meet" version="1.0"><defs><g/><clipPath id="6895c5b827"><path d="M 189 73 L 242.664062 73 L 242.664062 158 L 189 158 Z M 189 73 " clip-rule="nonzero"/></clipPath><clipPath id="c62520d42a"><path d="M 159 63.898438 L 193 63.898438 L 193 77 L 159 77 Z M 159 63.898438 " clip-rule="nonzero"/></clipPath><clipPath id="8550160b95"><path d="M 132.414062 111 L 173 111 L 173 161.398438 L 132.414062 161.398438 Z M 132.414062 111 " clip-rule="nonzero"/></clipPath><clipPath id="b9df994e9c"><path d="M 132.414062 128 L 201 128 L 201 145 L 132.414062 145 Z M 132.414062 128 " clip-rule="nonzero"/></clipPath></defs><rect x="-37.5" width="450" fill="#ffffff" y="-37.499999" height="449.999989" fill-opacity="1"/><rect x="-37.5" width="450" fill="#ffffff" y="-37.499999" height="449.999989" fill-opacity="1"/><g clip-path="url(#6895c5b827)"><path fill="#477f93" d="M 241.921875 108.953125 C 241.804688 108.785156 241.707031 108.59375 241.585938 108.425781 C 241.46875 108.234375 241.445312 108.019531 241.371094 107.804688 C 240.964844 106.800781 240.511719 105.820312 240.128906 104.816406 C 240.03125 104.578125 240.152344 104.265625 240.175781 103.835938 C 240.558594 104.074219 240.773438 104.386719 240.941406 104.671875 C 237.519531 91.921875 229.667969 80.992188 219.113281 73.648438 C 218.824219 73.601562 218.511719 73.554688 218.226562 73.507812 C 216.980469 73.292969 215.710938 73.195312 214.46875 73.050781 C 214.371094 73.050781 214.277344 73.074219 214.179688 73.101562 C 214.179688 73.148438 214.179688 73.171875 214.179688 73.21875 C 214.660156 73.316406 215.136719 73.433594 215.640625 73.53125 C 215.640625 73.625 215.640625 73.722656 215.640625 73.792969 C 215.304688 73.839844 214.972656 73.890625 214.613281 73.984375 C 214.179688 74.082031 213.726562 74.152344 213.320312 74.320312 C 212.839844 74.488281 212.433594 74.847656 211.953125 74.941406 C 211.117188 75.109375 210.253906 75.109375 209.417969 75.253906 C 209.011719 75.324219 208.628906 75.585938 208.246094 75.753906 C 208.414062 76.066406 208.578125 76.402344 208.796875 76.6875 C 208.988281 76.976562 209.25 77.238281 209.464844 77.5 C 209.5625 77.621094 209.609375 77.835938 209.753906 77.90625 C 210.710938 78.339844 211.691406 78.195312 212.695312 77.980469 C 212.960938 77.90625 213.390625 78.003906 213.558594 78.171875 C 214.179688 78.886719 214.730469 79.652344 215.28125 80.417969 C 215.519531 80.753906 215.808594 80.875 216.121094 80.585938 C 216.453125 80.300781 216.765625 80.300781 217.148438 80.371094 C 217.4375 80.417969 217.769531 80.347656 217.988281 80.324219 C 217.914062 79.84375 217.699219 79.367188 217.84375 79.199219 C 218.035156 78.960938 218.511719 78.960938 218.992188 78.816406 C 218.777344 78.578125 218.65625 78.386719 218.488281 78.242188 C 218.347656 78.097656 218.105469 78.027344 218.011719 77.859375 C 217.867188 77.621094 217.652344 77.308594 217.699219 77.070312 C 217.722656 76.925781 218.15625 76.808594 218.417969 76.757812 C 218.703125 76.710938 218.992188 76.757812 219.28125 76.710938 C 219.589844 76.6875 219.972656 76.710938 219.925781 76.183594 C 219.925781 76.113281 220.332031 75.875 220.5 75.921875 C 221.050781 76.066406 221.601562 76.28125 222.128906 76.496094 C 222.269531 76.566406 222.34375 76.757812 222.4375 76.902344 C 222.296875 77 222.152344 77.117188 221.984375 77.167969 C 221.457031 77.285156 220.90625 77.382812 220.238281 77.5 C 220.5 77.980469 220.597656 78.554688 220.929688 78.746094 C 221.886719 79.320312 222.917969 79.726562 224.089844 79.773438 C 224.570312 79.796875 225.023438 80.132812 225.480469 80.324219 C 225.453125 80.394531 225.453125 80.46875 225.429688 80.5625 C 225.238281 80.609375 225 80.730469 224.832031 80.683594 C 224.519531 80.609375 224.210938 80.441406 223.898438 80.300781 C 223.253906 79.988281 222.605469 79.894531 221.769531 80.179688 C 222.175781 80.324219 222.488281 80.347656 222.679688 80.515625 C 222.894531 80.683594 223.203125 81.066406 223.15625 81.183594 C 222.941406 81.589844 222.628906 81.28125 222.367188 81.136719 C 222.296875 81.089844 222.222656 81.039062 222.152344 80.992188 C 221.671875 80.707031 221.480469 80.800781 221.386719 81.328125 C 221.242188 82.117188 220.453125 82.476562 219.710938 82.214844 C 219.207031 82.023438 218.65625 81.949219 218.105469 81.878906 C 217.484375 81.804688 216.742188 81.949219 216.214844 81.710938 C 215.640625 81.421875 215.089844 81.496094 214.5625 81.375 C 213.988281 81.257812 213.367188 81.015625 212.914062 80.660156 C 212.363281 80.203125 213.128906 80.085938 213.246094 79.917969 C 213.105469 79.582031 212.984375 79.34375 212.886719 79.078125 C 212.625 79.105469 212.335938 79.105469 212.050781 79.152344 C 211.5 79.269531 211.429688 79.558594 211.789062 79.988281 C 211.929688 80.15625 212.074219 80.300781 212.195312 80.46875 C 212.3125 80.660156 212.363281 80.875 212.433594 81.066406 C 212.21875 81.113281 212.027344 81.230469 211.8125 81.230469 C 211.308594 81.257812 210.78125 81.136719 210.328125 81.257812 C 209.632812 81.449219 208.675781 81.613281 208.414062 82.09375 C 208.078125 82.714844 207.695312 82.761719 207.191406 82.882812 C 206.878906 82.953125 206.472656 82.953125 206.28125 83.144531 C 205.683594 83.71875 205.011719 83.933594 204.246094 83.648438 C 204.078125 83.601562 203.914062 83.550781 203.695312 83.480469 C 203.746094 83.769531 203.792969 83.960938 203.816406 84.148438 C 202.929688 84.53125 202.046875 83.625 201.113281 84.316406 C 201.375 84.4375 201.566406 84.558594 201.757812 84.628906 C 202.046875 84.722656 202.308594 84.796875 202.597656 84.84375 C 203.671875 85.011719 204.105469 86.039062 204.703125 86.6875 C 205.347656 87.402344 204.65625 88.625 203.503906 88.503906 C 201.949219 88.359375 200.394531 88.265625 198.835938 88.074219 C 198.191406 88 197.710938 88.191406 197.1875 88.480469 C 197.785156 89.460938 197.472656 90.394531 197.113281 91.300781 C 197.066406 91.421875 197.042969 91.660156 197.089844 91.683594 C 197.617188 91.949219 197.472656 92.425781 197.519531 92.832031 C 197.59375 93.550781 197.640625 93.621094 198.382812 93.453125 C 199.125 93.289062 199.746094 93.382812 200.128906 94.125 C 200.371094 94.554688 200.703125 94.578125 201.136719 94.410156 C 201.636719 94.21875 202.164062 94.101562 202.691406 93.980469 C 203.144531 93.886719 204.535156 93.429688 204.820312 93.144531 C 205.132812 92.832031 205.636719 92.378906 205.585938 92.089844 C 205.445312 91.515625 205.613281 91.109375 205.996094 90.824219 C 206.378906 90.535156 206.855469 90.367188 207.3125 90.179688 C 207.527344 90.082031 207.8125 90.105469 208.03125 89.988281 C 208.148438 89.914062 208.292969 89.722656 208.292969 89.578125 C 208.292969 88.8125 208.722656 88.40625 209.441406 88.765625 C 210.375 89.222656 211.1875 88.933594 212.003906 88.550781 C 212.914062 88.144531 214.132812 88.40625 214.539062 89.292969 C 214.972656 90.179688 215.710938 90.585938 216.480469 90.941406 C 217.316406 91.324219 218.082031 91.78125 218.777344 92.402344 C 219.304688 92.90625 219.996094 93.3125 219.757812 94.242188 C 219.949219 93.980469 220.117188 93.71875 220.308594 93.453125 C 220.261719 93.453125 220.210938 93.429688 220.164062 93.429688 C 220.140625 93.144531 220.117188 92.855469 220.117188 92.59375 C 220.453125 92.617188 220.789062 92.617188 221.21875 92.640625 C 220.378906 92.113281 219.636719 91.492188 218.777344 91.183594 C 218.15625 90.941406 217.722656 90.679688 217.386719 90.152344 C 217.195312 89.820312 216.933594 89.4375 216.597656 89.316406 C 215.953125 89.054688 215.710938 88.648438 215.808594 87.953125 C 216.214844 87.808594 216.597656 87.617188 216.910156 88.167969 C 217.003906 88.3125 217.316406 88.335938 217.507812 88.457031 C 217.722656 88.574219 217.960938 88.695312 218.128906 88.863281 C 218.585938 89.246094 218.992188 89.699219 219.496094 90.035156 C 220.070312 90.417969 220.761719 90.65625 221.335938 91.0625 C 221.671875 91.300781 221.984375 91.707031 222.03125 92.089844 C 222.199219 93.097656 222.847656 93.695312 223.5625 94.292969 C 223.347656 95.175781 223.683594 95.773438 224.640625 95.964844 C 224.617188 95.535156 224.59375 95.152344 224.570312 94.769531 C 225.214844 95.152344 225.214844 95.152344 225.382812 94.9375 C 224.929688 94.339844 224.472656 93.742188 224.042969 93.167969 C 224.089844 93.121094 224.113281 93.046875 224.164062 93 C 224.402344 93.070312 224.640625 93.144531 224.878906 93.214844 C 225.167969 92.714844 225.621094 92.664062 226.078125 92.929688 C 226.746094 93.335938 227.464844 93.238281 228.136719 93.238281 C 227.945312 92.855469 227.539062 92.402344 227.632812 92.1875 C 227.992188 91.46875 227.921875 90.511719 228.734375 90.058594 C 228.949219 89.9375 229.238281 89.699219 229.378906 89.746094 C 229.789062 89.9375 230.3125 90.203125 230.457031 90.558594 C 230.769531 91.324219 231.296875 91.683594 232.039062 91.421875 C 231.871094 91.253906 231.703125 91.0625 231.535156 90.871094 C 231.796875 90.777344 232.039062 90.65625 232.300781 90.585938 C 232.5625 90.535156 232.828125 90.535156 233.234375 90.535156 C 233.164062 91.015625 233.089844 91.375 233.019531 91.921875 C 233.1875 92.089844 233.519531 92.355469 233.832031 92.664062 C 234.40625 93.238281 234.980469 93.8125 235.53125 94.410156 C 235.652344 94.53125 235.699219 94.890625 235.628906 94.960938 C 235.484375 95.082031 235.195312 95.175781 235.003906 95.128906 C 234.40625 94.960938 233.640625 94.890625 233.28125 94.484375 C 232.0625 93.144531 230.480469 93.835938 229.070312 93.527344 C 229.046875 93.527344 229.019531 93.527344 229.019531 93.527344 C 228.710938 94.050781 228.304688 93.667969 227.945312 93.644531 C 227.5625 93.621094 227.15625 93.574219 226.769531 93.527344 C 226.746094 93.574219 226.722656 93.621094 226.699219 93.667969 C 227.15625 93.957031 227.15625 94.316406 226.84375 94.625 C 227.5625 95.414062 227.96875 96.445312 228.996094 96.898438 C 229.308594 97.042969 229.5 97.304688 229.835938 96.921875 C 229.929688 96.804688 230.3125 96.828125 230.480469 96.898438 C 230.746094 97.042969 230.960938 97.304688 231.222656 97.472656 C 231.460938 97.617188 231.871094 97.785156 231.988281 97.6875 C 232.46875 97.304688 232.921875 97.542969 233.378906 97.570312 C 233.425781 97.953125 233.472656 98.261719 233.519531 98.597656 C 233.570312 98.933594 233.664062 99.265625 233.617188 99.578125 C 233.546875 100.105469 233.355469 100.605469 233.257812 101.132812 C 233.066406 102.28125 232.898438 102.375 231.796875 101.945312 C 231.4375 101.800781 231.054688 101.707031 230.671875 101.660156 C 230.171875 101.585938 229.621094 101.707031 229.164062 101.539062 C 228.160156 101.226562 227.179688 100.796875 226.222656 100.390625 C 226.003906 100.296875 225.8125 100.105469 225.644531 99.914062 C 225.214844 99.410156 224.761719 99.289062 224.042969 99.53125 C 223.492188 99.722656 223.539062 100.152344 223.539062 100.605469 C 223.539062 101.253906 223.253906 101.515625 222.628906 101.324219 C 222.03125 101.15625 221.433594 100.917969 220.929688 100.582031 C 219.636719 99.722656 218.347656 98.957031 216.71875 98.835938 C 215.617188 98.765625 215.089844 97.640625 215.449219 96.613281 C 215.519531 96.421875 215.425781 96.179688 215.378906 95.988281 C 215.304688 95.679688 215.234375 95.390625 215.136719 95.03125 C 215.066406 95.007812 214.851562 94.9375 214.730469 94.792969 C 214.371094 94.386719 213.988281 94.410156 213.535156 94.625 C 213.390625 94.699219 213.199219 94.792969 213.054688 94.746094 C 212.289062 94.484375 211.570312 94.484375 210.828125 94.816406 C 210.734375 94.867188 210.566406 94.746094 210.421875 94.722656 C 209.921875 94.625 209.371094 94.410156 208.914062 94.507812 C 207.480469 94.769531 206.066406 95.082031 204.679688 95.511719 C 203.410156 95.917969 202.238281 95.964844 201.085938 95.273438 C 200.730469 95.058594 200.5625 95.152344 200.417969 95.488281 C 200.25 95.796875 200.128906 96.15625 199.867188 96.371094 C 199.171875 96.921875 198.429688 97.425781 197.664062 97.902344 C 196.851562 98.40625 196.421875 99.097656 196.46875 100.078125 C 196.46875 100.296875 196.445312 100.558594 196.324219 100.726562 C 195.796875 101.417969 195.222656 102.113281 194.335938 102.375 C 193.210938 102.710938 192.445312 103.5 191.894531 104.503906 C 191.5625 105.101562 191.296875 105.75 190.988281 106.347656 C 190.746094 106.777344 190.53125 107.230469 190.222656 107.613281 C 189.886719 108.042969 189.695312 108.476562 189.835938 109 C 190.03125 109.71875 190.222656 110.460938 190.414062 111.179688 C 190.796875 112.589844 190.4375 113.808594 189.527344 114.910156 C 189.261719 115.21875 189.335938 115.410156 189.503906 115.722656 C 189.765625 116.199219 190.054688 116.726562 190.125 117.253906 C 190.222656 117.898438 190.554688 118.328125 191.011719 118.761719 C 192.015625 119.765625 193.308594 120.507812 193.90625 121.917969 C 194.242188 122.753906 194.914062 123.234375 195.703125 123.664062 C 196.347656 124.023438 197.042969 124.429688 197.472656 125.003906 C 198.097656 125.816406 198.835938 125.863281 199.699219 125.695312 C 200.035156 125.625 200.347656 125.554688 200.65625 125.457031 C 201.734375 125.074219 202.8125 124.980469 203.886719 125.433594 C 204.367188 125.648438 204.820312 125.503906 205.300781 125.242188 C 206.878906 124.429688 208.554688 123.855469 210.328125 123.664062 C 211.070312 123.589844 211.332031 123.902344 211.378906 124.644531 C 211.378906 124.789062 211.378906 124.929688 211.378906 125.074219 C 211.355469 125.527344 211.570312 125.71875 212.027344 125.671875 C 212.601562 125.601562 213.199219 125.554688 213.773438 125.527344 C 214.421875 125.503906 214.921875 125.792969 215.378906 126.246094 C 215.785156 126.652344 215.640625 127.058594 215.519531 127.515625 C 215.449219 127.824219 215.449219 128.183594 215.378906 128.496094 C 215.304688 128.78125 215.257812 129.117188 215.066406 129.355469 C 214.515625 130.074219 214.515625 130.765625 214.945312 131.507812 C 215.1875 131.914062 215.402344 132.320312 215.710938 132.65625 C 216.597656 133.613281 217.292969 134.617188 217.4375 136.003906 C 217.554688 137.226562 217.960938 138.398438 218.226562 139.59375 C 218.273438 139.855469 218.273438 140.214844 218.179688 140.453125 C 217.84375 141.171875 217.414062 141.816406 217.078125 142.535156 C 216.765625 143.230469 216.429688 143.921875 216.289062 144.664062 C 216 146.121094 216.621094 147.367188 217.460938 148.515625 C 217.914062 149.113281 217.9375 149.6875 217.84375 150.378906 C 217.722656 151.386719 217.605469 152.484375 218.371094 153.296875 C 219.039062 154.015625 219.28125 154.875 219.636719 155.714844 C 219.710938 155.90625 219.636719 156.144531 219.664062 156.382812 C 219.6875 156.742188 219.613281 157.269531 219.804688 157.386719 C 220.070312 157.554688 220.667969 157.554688 220.859375 157.363281 C 221.9375 156.335938 223.46875 156.40625 224.6875 155.691406 C 225.382812 155.285156 226.054688 154.925781 226.578125 154.328125 C 227.320312 153.511719 228.113281 152.722656 228.804688 151.886719 C 229.210938 151.386719 229.789062 150.785156 229.789062 150.210938 C 229.789062 149.207031 230.289062 148.800781 231.03125 148.417969 C 231.773438 148.035156 232.324219 146.433594 231.988281 145.667969 C 231.773438 145.191406 231.894531 144.808594 232.203125 144.472656 C 233.113281 143.515625 234.023438 142.605469 234.933594 141.675781 C 235.460938 141.148438 235.796875 140.574219 235.867188 139.832031 C 235.960938 138.949219 236.15625 138.085938 236.273438 137.203125 C 236.296875 136.960938 236.320312 136.699219 236.25 136.484375 C 235.796875 134.761719 235.414062 133.039062 236.464844 131.390625 C 236.539062 131.269531 236.5625 131.101562 236.632812 130.984375 C 237.328125 129.90625 238.140625 128.878906 238.546875 127.632812 C 238.546875 127.609375 238.570312 127.609375 238.597656 127.585938 C 240.460938 125.671875 241.277344 123.257812 241.851562 120.746094 C 241.996094 120.125 241.996094 119.453125 242.066406 118.761719 C 241.179688 119.167969 240.4375 119.5 239.695312 119.8125 C 239.601562 119.859375 239.363281 119.789062 239.335938 119.71875 C 239.144531 119.335938 239.003906 118.925781 238.835938 118.546875 C 238.714844 118.28125 238.644531 117.972656 238.5 117.730469 C 237.972656 116.917969 237.398438 116.152344 236.847656 115.339844 C 236.753906 115.195312 236.730469 114.980469 236.65625 114.8125 C 236.417969 114.144531 236.226562 113.425781 235.914062 112.804688 C 235.554688 112.085938 235.222656 111.394531 235.269531 110.554688 C 235.292969 110.363281 235.246094 110.125 235.148438 109.957031 C 234.8125 109.242188 234.429688 108.523438 234.097656 107.804688 C 233.472656 106.464844 232.851562 105.125 232.230469 103.789062 C 232.132812 103.570312 232.085938 103.332031 232.011719 103.117188 C 232.0625 103.09375 232.109375 103.070312 232.179688 103.046875 C 232.539062 103.570312 232.875 104.097656 233.257812 104.671875 C 233.402344 104.410156 233.496094 104.242188 233.617188 104.003906 C 233.710938 104.265625 233.761719 104.410156 233.832031 104.550781 C 234.335938 105.582031 234.863281 106.632812 235.386719 107.660156 C 235.414062 107.734375 235.484375 107.804688 235.554688 107.851562 C 236.226562 108.308594 236.441406 109.027344 236.5625 109.71875 C 236.703125 110.460938 236.703125 111.226562 237.421875 111.703125 C 237.519531 111.777344 237.519531 111.96875 237.566406 112.109375 C 237.828125 112.683594 238.117188 113.257812 238.355469 113.855469 C 238.523438 114.238281 238.644531 114.671875 238.714844 115.078125 C 238.835938 115.816406 238.882812 116.558594 239.003906 117.300781 C 239.027344 117.492188 239.242188 117.683594 239.433594 117.753906 C 239.503906 117.804688 239.722656 117.589844 239.863281 117.492188 C 240.105469 117.347656 240.34375 117.207031 240.605469 117.0625 C 240.75 116.988281 240.941406 116.917969 241.011719 116.800781 C 241.394531 116.082031 242.472656 116.007812 242.546875 115.027344 C 242.546875 115.003906 242.59375 114.957031 242.640625 114.933594 C 242.640625 114.933594 242.664062 114.933594 242.664062 114.933594 C 242.519531 112.828125 242.28125 110.867188 241.921875 108.953125 Z M 241.921875 108.953125 " fill-opacity="1" fill-rule="nonzero"/></g><g clip-path="url(#c62520d42a)"><path fill="#477f93" d="M 183.0625 68.9375 C 183.6875 69.175781 184.308594 69.296875 184.953125 69.128906 C 184.980469 69.058594 184.980469 68.984375 185.003906 68.914062 C 184.09375 68.675781 183.183594 68.460938 182.273438 68.222656 C 182.417969 68.054688 182.5625 68.003906 182.679688 68.03125 C 183.375 68.195312 184.046875 68.628906 184.738281 67.8125 C 185.074219 67.429688 185.839844 67.429688 186.367188 67.265625 C 186.222656 67.214844 186.03125 67.144531 185.863281 67.074219 C 185.863281 67.023438 185.863281 66.976562 185.886719 66.929688 C 186.128906 66.855469 186.367188 66.785156 186.605469 66.714844 C 186.605469 66.667969 186.605469 66.640625 186.605469 66.59375 C 186.246094 66.5 185.863281 66.425781 185.503906 66.332031 L 185.503906 66.09375 C 186.269531 66.042969 187.011719 66.019531 187.78125 65.972656 C 187.78125 65.949219 187.78125 65.902344 187.78125 65.875 C 187.011719 65.757812 186.269531 65.636719 185.457031 65.492188 C 185.554688 65.398438 185.578125 65.300781 185.648438 65.277344 C 188.019531 64.992188 190.363281 64.703125 192.734375 64.441406 C 189.835938 64.296875 186.941406 64.203125 184.070312 64.703125 C 184.40625 64.585938 184.738281 64.441406 185.144531 64.273438 C 183.0625 64.394531 181.101562 64.511719 179.136719 64.609375 C 179.136719 64.5625 179.136719 64.511719 179.113281 64.441406 C 180.933594 64.273438 182.753906 64.128906 184.570312 63.964844 C 184.332031 63.9375 184.117188 63.964844 183.878906 63.9375 C 183.78125 63.9375 183.6875 63.914062 183.589844 63.914062 C 174.757812 64.539062 166.5 67.265625 159.296875 71.546875 C 159.535156 71.617188 159.773438 71.6875 160.011719 71.785156 C 160.039062 71.855469 160.0625 71.953125 160.085938 72.023438 C 159.941406 72.121094 159.773438 72.238281 159.628906 72.335938 C 160.445312 71.976562 161.234375 71.738281 162.097656 72.214844 C 161.90625 72.359375 161.785156 72.476562 161.640625 72.574219 C 161.878906 72.503906 162.144531 72.453125 162.382812 72.382812 C 162.40625 72.453125 162.453125 72.527344 162.480469 72.574219 C 162.046875 72.859375 161.640625 73.195312 161.164062 73.386719 C 160.300781 73.722656 159.964844 74.058594 159.941406 74.894531 C 160.371094 75.039062 160.828125 75.203125 161.28125 75.371094 C 161.136719 75.753906 161.1875 75.898438 161.640625 76.210938 C 162.40625 76.6875 163.171875 76.976562 164.105469 76.59375 C 164.347656 76.496094 164.679688 76.566406 164.921875 76.640625 C 166.1875 77.023438 167.121094 76.710938 167.671875 75.5625 C 167.816406 75.277344 168.078125 75.011719 168.320312 74.796875 C 168.582031 74.605469 168.894531 74.488281 169.203125 74.34375 C 169.230469 74.007812 169.300781 73.578125 169.492188 73.507812 C 170.304688 73.171875 171.167969 72.859375 172.03125 72.667969 C 172.796875 72.476562 173.585938 72.453125 174.351562 72.335938 C 174.664062 72.285156 174.949219 72.167969 174.855469 71.710938 C 174.828125 71.570312 174.996094 71.304688 175.140625 71.234375 C 175.667969 71.019531 176.195312 70.828125 176.746094 70.730469 C 178.851562 70.398438 181.003906 70.347656 183.015625 69.558594 C 182.464844 69.511719 181.867188 69.464844 181.195312 69.417969 C 181.9375 68.675781 182.226562 68.628906 183.0625 68.9375 Z M 183.0625 68.9375 " fill-opacity="1" fill-rule="nonzero"/></g><g clip-path="url(#8550160b95)"><path fill="#477f93" d="M 170.929688 134.832031 C 169.828125 134.929688 169.109375 134.308594 168.4375 133.636719 C 167.695312 132.917969 166.859375 132.65625 165.828125 132.753906 C 165.421875 132.800781 164.96875 132.679688 164.585938 132.511719 C 164.15625 132.320312 163.769531 132.226562 163.339844 132.464844 C 163.246094 132.511719 163.125 132.488281 163.054688 132.511719 C 162.886719 132.179688 162.8125 131.773438 162.574219 131.628906 C 161.953125 131.246094 161.28125 130.957031 160.613281 130.671875 C 160.109375 130.433594 159.726562 130.625 159.4375 131.054688 C 159.246094 131.363281 159.007812 131.628906 158.746094 132.011719 C 158.195312 131.605469 157.738281 131.199219 157.238281 130.910156 C 156.78125 130.648438 156.6875 130.335938 156.878906 129.953125 C 157.140625 129.429688 157.40625 128.902344 157.738281 128.445312 C 158.027344 128.0625 158.195312 127.824219 157.738281 127.417969 C 157.476562 127.179688 157.378906 126.726562 157.210938 126.367188 C 157.09375 126.128906 157.070312 125.816406 156.902344 125.625 C 156.015625 124.714844 154.9375 124.164062 153.621094 124.046875 C 152.953125 124 152.234375 123.808594 151.683594 123.472656 C 151.132812 123.136719 150.75 122.492188 150.269531 122.035156 C 149.816406 121.628906 148.929688 121.703125 148.882812 120.816406 C 148.882812 120.792969 148.859375 120.792969 148.835938 120.769531 C 148.40625 120.457031 147.996094 120.148438 147.542969 119.859375 C 147.445312 119.789062 147.207031 119.742188 147.136719 119.8125 C 146.441406 120.363281 145.746094 120.242188 145.03125 119.933594 C 145.003906 119.933594 144.980469 119.933594 144.957031 119.933594 C 144.503906 119.957031 144.144531 119.910156 143.832031 119.476562 C 143.449219 118.953125 142.851562 119.144531 142.347656 119.40625 C 141.871094 119.644531 142.203125 120.003906 142.253906 120.339844 C 142.277344 120.578125 142.179688 120.816406 142.15625 121.082031 C 141.222656 120.265625 141.964844 119.382812 141.964844 118.617188 C 141.320312 118.925781 140.722656 119.191406 140.144531 119.5 C 139.90625 119.644531 139.691406 119.882812 139.570312 120.148438 C 139.308594 120.625 139.117188 121.128906 138.804688 121.75 C 138.589844 121.4375 138.472656 121.296875 138.398438 121.152344 C 137.96875 120.316406 137.96875 120.316406 137.15625 120.769531 C 137.011719 120.863281 136.652344 120.914062 136.605469 120.839844 C 136.222656 120.265625 135.550781 119.835938 135.597656 119.046875 C 135.644531 118.234375 135.671875 117.421875 135.71875 116.609375 C 135.765625 115.460938 135.527344 115.246094 134.425781 115.484375 C 134.328125 115.507812 134.234375 115.53125 134.113281 115.554688 C 133.730469 115.601562 133.636719 115.410156 133.707031 115.078125 C 133.921875 114.144531 134.113281 113.234375 134.328125 112.300781 C 134.402344 112.015625 134.472656 111.726562 134.570312 111.417969 C 133.683594 111.226562 133.5625 111.320312 133.347656 112.085938 C 133.277344 112.398438 133.179688 112.707031 133.0625 113.019531 C 133.0625 113.042969 133.039062 113.066406 133.039062 113.117188 C 132.988281 113.234375 132.871094 113.378906 132.75 113.449219 C 132.703125 113.472656 132.679688 113.5 132.628906 113.5 C 132.558594 114.191406 132.511719 114.863281 132.460938 115.554688 C 132.4375 115.792969 132.4375 116.035156 132.414062 116.296875 C 132.535156 116.703125 132.703125 117.0625 133.15625 117.230469 C 133.921875 117.515625 134.449219 118.089844 134.6875 118.855469 C 134.878906 119.550781 135.097656 120.21875 135.695312 120.722656 C 136.195312 121.152344 136.605469 121.65625 137.058594 122.109375 C 137.226562 121.703125 137.296875 121.34375 137.511719 121.082031 C 137.730469 120.792969 137.992188 120.839844 138.039062 121.246094 C 138.136719 122.277344 138.757812 123.210938 138.664062 124.285156 C 138.613281 124.882812 138.925781 125.480469 138.28125 126.054688 C 137.871094 126.390625 137.65625 127.011719 137.511719 127.5625 C 137.371094 128.0625 137.464844 128.636719 137.441406 129.164062 C 137.417969 129.691406 137.464844 130.21875 138.039062 130.480469 C 137.96875 130.625 137.945312 130.742188 137.871094 130.839844 C 137.296875 131.628906 137.417969 132.417969 137.96875 133.085938 C 138.878906 134.234375 139.332031 135.574219 139.789062 136.914062 C 139.953125 137.417969 140.121094 137.917969 140.335938 138.421875 C 140.386719 138.539062 140.433594 138.636719 140.480469 138.757812 C 140.816406 139.546875 141.199219 140.167969 141.847656 140.667969 C 142.46875 141.171875 143.164062 141.625 143.738281 142.199219 C 144.144531 142.605469 144.550781 143.109375 144.671875 143.636719 C 145.003906 145.117188 145.246094 146.648438 145.4375 148.179688 C 145.652344 149.757812 145.675781 151.359375 146.179688 152.914062 C 146.394531 153.5625 146.25 154.328125 146.296875 155.042969 C 146.320312 155.257812 146.347656 155.449219 146.371094 155.667969 C 148.1875 157.722656 150.175781 159.613281 152.28125 161.382812 C 152.402344 160.714844 151.683594 160.28125 151.660156 159.613281 C 152.1875 159.828125 152.617188 160.019531 153.070312 160.210938 C 153.144531 159.132812 153.144531 159.160156 154.125 159.445312 C 154.53125 159.566406 154.988281 159.660156 155.417969 159.613281 C 155.703125 159.589844 156.039062 159.324219 156.183594 159.085938 C 156.253906 158.941406 156.039062 158.585938 155.894531 158.367188 C 155.511719 157.867188 155.105469 157.386719 154.699219 156.910156 C 154.746094 156.863281 154.769531 156.8125 154.820312 156.742188 C 155.011719 156.8125 155.226562 156.910156 155.417969 156.980469 C 155.945312 157.195312 156.445312 157.460938 156.972656 157.652344 C 157.644531 157.890625 157.953125 157.675781 158.363281 157.101562 C 158.863281 156.359375 159.460938 155.667969 160.085938 154.996094 C 160.707031 154.351562 161.449219 153.777344 160.945312 152.722656 C 160.898438 152.628906 160.921875 152.460938 160.898438 152.367188 C 160.78125 151.984375 160.972656 151.816406 161.28125 151.648438 C 161.976562 151.265625 162.695312 150.953125 163.4375 150.644531 C 164.15625 150.355469 164.800781 150.210938 165.566406 150.210938 C 165.949219 150.210938 166.597656 149.972656 166.714844 149.664062 C 167.121094 148.632812 167.839844 147.820312 168.128906 146.671875 C 168.4375 145.355469 168.65625 144.160156 168.320312 142.871094 C 168.246094 142.628906 168.34375 142.199219 168.535156 142.082031 C 169.445312 141.457031 170.089844 140.621094 170.710938 139.761719 C 170.878906 139.519531 171.070312 139.257812 171.238281 139.019531 C 171.3125 138.898438 171.382812 138.804688 171.453125 138.683594 C 171.933594 137.847656 172.101562 136.914062 171.957031 135.933594 C 171.863281 135.238281 171.503906 134.761719 170.929688 134.832031 Z M 170.929688 134.832031 " fill-opacity="1" fill-rule="nonzero"/></g><path fill="#477f93" d="M 135.910156 104.363281 C 136.171875 104.265625 136.484375 104.074219 136.578125 104.144531 C 136.746094 104.265625 136.769531 104.550781 136.84375 104.792969 C 136.867188 104.960938 136.820312 105.125 136.84375 105.292969 C 136.988281 106.035156 137.15625 106.777344 137.296875 107.542969 C 137.371094 107.542969 137.441406 107.519531 137.511719 107.519531 C 137.847656 107.0625 137.894531 106.5625 137.800781 106.011719 C 137.703125 105.292969 137.511719 104.578125 137.539062 103.859375 C 137.5625 102.757812 138.113281 101.898438 138.972656 101.203125 C 139.523438 100.75 140.144531 100.246094 140.433594 99.625 C 140.746094 98.933594 140.746094 98.070312 140.863281 97.28125 C 140.863281 97.234375 140.914062 97.1875 140.960938 97.089844 C 141.054688 97.210938 141.152344 97.304688 141.199219 97.402344 C 141.558594 96.777344 141.894531 96.179688 142.253906 95.558594 C 142.253906 95.535156 142.277344 95.511719 142.277344 95.511719 C 142.277344 94.675781 142.996094 94.507812 143.519531 94.148438 C 143.738281 94.003906 144.023438 93.933594 144.214844 93.742188 C 144.382812 93.597656 144.480469 93.382812 144.574219 93.191406 C 144.742188 92.855469 144.789062 92.449219 145.03125 92.210938 C 145.699219 91.542969 146.703125 91.351562 147.304688 90.488281 C 147.589844 90.058594 148.355469 89.960938 148.882812 89.722656 C 148.835938 89.960938 148.691406 90.152344 148.5 90.320312 C 148.140625 90.65625 147.589844 90.871094 147.902344 91.542969 C 148.953125 90.824219 149.984375 90.128906 150.988281 89.4375 C 150.007812 89.460938 149.097656 89.386719 148.667969 88.359375 C 148.953125 88.097656 149.21875 87.832031 149.480469 87.59375 C 148.1875 87.308594 147.398438 88.167969 146.441406 88.671875 C 146.539062 88.433594 146.703125 88.265625 146.871094 88.121094 C 147.160156 87.859375 147.472656 87.59375 147.757812 87.355469 C 148.140625 87.042969 148.476562 86.660156 148.90625 86.46875 C 149.335938 86.253906 149.863281 86.207031 150.34375 86.085938 C 151.203125 85.871094 152.113281 85.753906 152.929688 85.417969 C 153.742188 85.082031 154.484375 84.558594 155.273438 84.148438 C 156.113281 83.71875 156.160156 83.386719 155.464844 82.738281 C 154.722656 83.027344 154.003906 83.3125 153.261719 83.601562 C 153.238281 83.527344 153.191406 83.457031 153.167969 83.386719 C 153.71875 83.097656 154.269531 82.835938 154.722656 82.621094 C 153.980469 82.429688 153.191406 82.238281 152.355469 82.046875 C 152.496094 81.613281 152.761719 81.230469 152.136719 81.113281 C 152.066406 81.113281 152.066406 80.945312 151.996094 80.875 C 151.804688 80.660156 151.613281 80.371094 151.347656 80.25 C 151.230469 80.203125 150.941406 80.46875 150.773438 80.609375 C 150.246094 81.066406 149.746094 81.566406 149.171875 81.972656 C 149.003906 82.09375 148.621094 81.996094 148.378906 81.878906 C 148.285156 81.832031 148.308594 81.496094 148.285156 81.304688 C 148.285156 81.183594 148.285156 81.089844 148.308594 80.945312 C 148.09375 80.96875 147.925781 81.066406 147.78125 81.015625 C 147.710938 80.992188 147.636719 80.992188 147.566406 80.96875 C 145.796875 82.8125 144.167969 84.773438 142.683594 86.851562 C 142.636719 86.949219 142.613281 87.042969 142.5625 87.140625 C 142.371094 87.617188 142.253906 88.121094 141.964844 88.550781 C 141.796875 88.789062 141.558594 88.863281 141.34375 88.789062 C 140.601562 89.914062 139.90625 91.085938 139.238281 92.257812 C 139.40625 92.257812 139.570312 92.257812 139.738281 92.28125 C 139.90625 92.304688 140.097656 92.402344 140.265625 92.472656 C 140.171875 92.664062 140.121094 92.878906 140.003906 93.046875 C 139.8125 93.289062 139.570312 93.476562 139.378906 93.71875 C 139.238281 93.910156 139.117188 94.125 138.996094 94.316406 C 138.925781 94.292969 138.828125 94.292969 138.757812 94.269531 C 138.734375 93.933594 138.734375 93.621094 138.710938 93.238281 L 134.042969 105.316406 C 134.066406 105.316406 134.089844 105.316406 134.113281 105.316406 C 134.570312 104.265625 135.191406 103.953125 135.910156 104.363281 Z M 135.910156 104.363281 " fill-opacity="1" fill-rule="nonzero"/><path fill="#477f93" d="M 199.988281 78.53125 C 200.65625 78.53125 200.703125 78.886719 200.347656 79.558594 C 201.230469 79.152344 201.6875 79.703125 202.238281 80.011719 C 202.332031 80.058594 202.453125 80.226562 202.429688 80.277344 C 202.378906 80.394531 202.261719 80.515625 202.140625 80.5625 C 201.878906 80.632812 201.589844 80.683594 201.207031 80.753906 C 201.566406 81.398438 201.039062 81.449219 200.585938 81.664062 C 201.28125 81.804688 201.855469 81.925781 202.453125 82.046875 C 202.453125 82.070312 202.476562 82.117188 202.476562 82.140625 C 201.828125 82.332031 201.207031 82.523438 200.511719 82.714844 C 202.429688 82.714844 204.246094 82.714844 206.1875 82.714844 C 205.996094 82.5 205.898438 82.40625 205.828125 82.332031 C 206.066406 82.070312 206.257812 81.832031 206.472656 81.613281 C 206.113281 81.496094 205.753906 81.375 205.445312 81.257812 C 205.179688 80.921875 204.964844 80.492188 204.605469 80.25 C 203.816406 79.675781 202.929688 79.199219 201.878906 78.53125 C 202.238281 78.339844 202.621094 78.148438 202.980469 77.957031 C 202.929688 77.882812 202.882812 77.8125 202.8125 77.714844 C 202.1875 77.621094 201.566406 77.550781 200.945312 77.453125 C 200.945312 77.382812 200.945312 77.332031 200.945312 77.261719 C 201.113281 77.167969 201.304688 77.046875 201.566406 76.878906 C 201.253906 76.832031 201.039062 76.808594 200.847656 76.757812 C 200.273438 76.617188 199.960938 77 199.652344 77.332031 C 199.414062 77.574219 199.675781 78.53125 199.988281 78.53125 Z M 199.988281 78.53125 " fill-opacity="1" fill-rule="nonzero"/><path fill="#477f93" d="M 237.304688 141.839844 C 237.253906 142.628906 237.039062 143.347656 236.609375 143.945312 C 236.273438 144.375 236.203125 144.832031 236.15625 145.308594 C 237.328125 143.15625 238.355469 140.933594 239.21875 138.636719 C 238.859375 139.210938 238.476562 139.761719 237.972656 140.261719 C 237.613281 140.621094 237.328125 141.292969 237.304688 141.839844 Z M 237.304688 141.839844 " fill-opacity="1" fill-rule="nonzero"/><path fill="#477f93" d="M 190.988281 71.617188 C 190.414062 71.519531 189.8125 71.570312 189.214844 71.59375 C 188.019531 71.664062 186.847656 71.785156 185.648438 71.832031 C 185.433594 71.832031 185.171875 71.738281 184.980469 71.59375 C 184.621094 71.332031 184.355469 71.402344 183.949219 71.6875 C 184.355469 71.738281 184.644531 71.761719 184.953125 71.808594 C 184.859375 72.09375 184.789062 72.3125 184.691406 72.574219 C 187.347656 73.265625 189.886719 73.265625 192.398438 72.285156 C 191.945312 72.023438 191.464844 71.710938 190.988281 71.617188 Z M 190.988281 71.617188 " fill-opacity="1" fill-rule="nonzero"/><path fill="#477f93" d="M 150.75 79.152344 C 150.511719 79.105469 150.269531 79.054688 150.03125 79.03125 C 150.726562 78.648438 151.613281 78.914062 152.210938 77.980469 C 151.828125 78.003906 151.5625 78.027344 151.347656 78.003906 C 151.179688 77.980469 151.039062 77.882812 150.871094 77.8125 C 150.222656 78.386719 149.601562 78.984375 148.980469 79.582031 C 149.578125 79.460938 150.175781 79.367188 150.773438 79.246094 C 150.75 79.222656 150.75 79.175781 150.75 79.152344 Z M 150.75 79.152344 " fill-opacity="1" fill-rule="nonzero"/><path fill="#477f93" d="M 152.976562 77.117188 C 153.453125 76.878906 153.835938 76.472656 154.269531 76.160156 C 153.71875 76.210938 153.167969 76.257812 152.617188 76.304688 C 152.234375 76.617188 151.875 76.925781 151.492188 77.238281 C 151.636719 77.238281 151.804688 77.238281 151.945312 77.214844 C 152.28125 77.214844 152.6875 77.261719 152.976562 77.117188 Z M 152.976562 77.117188 " fill-opacity="1" fill-rule="nonzero"/><path fill="#477f93" d="M 195.894531 81.28125 C 196.203125 81.398438 196.515625 81.566406 196.828125 81.640625 C 196.996094 81.6875 197.1875 81.589844 197.378906 81.542969 C 197.832031 81.449219 198.289062 81.328125 198.765625 81.28125 C 199.125 81.257812 199.316406 81.160156 199.222656 80.753906 C 199.101562 80.324219 199.078125 79.917969 199.699219 79.773438 C 199.195312 78.914062 197.738281 78.816406 197.257812 79.484375 C 197.164062 79.628906 196.921875 79.675781 196.730469 79.726562 C 196.5625 79.773438 196.347656 79.773438 196.039062 79.820312 C 196.347656 80.085938 196.539062 80.226562 196.730469 80.394531 C 196.613281 80.515625 196.539062 80.609375 196.445312 80.707031 C 196.253906 80.875 196.0625 81.066406 195.894531 81.28125 Z M 195.894531 81.28125 " fill-opacity="1" fill-rule="nonzero"/><path fill="#477f93" d="M 155.058594 85.464844 C 155.394531 85.035156 155.65625 84.699219 155.921875 84.367188 C 155.847656 84.316406 155.800781 84.269531 155.730469 84.222656 C 154.722656 85.132812 154.03125 86.304688 153.214844 87.378906 C 153.40625 87.378906 153.574219 87.308594 153.742188 87.308594 C 154.414062 87.234375 155.082031 87.1875 155.753906 87.117188 C 155.921875 87.09375 156.113281 87.140625 156.253906 87.070312 C 156.398438 86.996094 156.519531 86.851562 156.710938 86.710938 C 156.804688 86.878906 156.828125 87.019531 156.902344 87.09375 C 157.046875 87.210938 157.210938 87.332031 157.355469 87.332031 C 157.453125 87.332031 157.644531 87.117188 157.644531 86.996094 C 157.644531 86.878906 157.429688 86.78125 157.332031 86.660156 C 157.261719 86.566406 157.164062 86.421875 157.164062 86.304688 C 157.140625 86.113281 157.164062 85.894531 157.164062 85.730469 C 156.398438 85.609375 155.777344 85.539062 155.058594 85.464844 Z M 155.058594 85.464844 " fill-opacity="1" fill-rule="nonzero"/><path fill="#477f93" d="M 139.929688 111.441406 C 140.097656 111.417969 140.265625 111.273438 140.433594 111.179688 C 140.335938 111.035156 140.242188 110.84375 140.097656 110.769531 C 139.332031 110.339844 138.566406 109.910156 137.800781 109.503906 C 136.9375 109.050781 136.339844 109.265625 135.910156 110.199219 C 136.675781 109.167969 137.394531 110.125 138.0625 110.269531 C 138.472656 110.339844 138.757812 110.9375 139.117188 111.296875 C 139.09375 111.34375 139.046875 111.394531 139.019531 111.464844 C 139.308594 111.441406 139.621094 111.488281 139.929688 111.441406 Z M 139.929688 111.441406 " fill-opacity="1" fill-rule="nonzero"/><path fill="#477f93" d="M 140.722656 112.589844 C 141.199219 112.636719 141.726562 112.683594 142.300781 112.757812 C 142.753906 112.613281 143.304688 112.421875 143.855469 112.230469 C 143.328125 111.128906 142.347656 111.296875 141.414062 111.417969 C 141.460938 111.703125 141.605469 112.085938 141.488281 112.300781 C 141.367188 112.492188 140.9375 112.515625 140.722656 112.589844 Z M 140.722656 112.589844 " fill-opacity="1" fill-rule="nonzero"/><path fill="#477f93" d="M 157.691406 129.714844 C 157.570312 129.882812 157.453125 130.289062 157.546875 130.359375 C 157.882812 130.648438 158.289062 131.03125 158.695312 131.054688 C 159.152344 131.078125 159.269531 130.574219 159.296875 130.074219 C 159.078125 130.050781 158.914062 130.050781 158.769531 129.976562 C 158.601562 129.90625 158.457031 129.738281 158.289062 129.691406 C 158.074219 129.667969 157.761719 129.621094 157.691406 129.714844 Z M 157.691406 129.714844 " fill-opacity="1" fill-rule="nonzero"/><path fill="#477f93" d="M 213.34375 92.332031 C 213.390625 92.496094 213.605469 92.640625 213.75 92.785156 C 213.894531 92.617188 214.15625 92.449219 214.132812 92.304688 C 214.109375 91.949219 213.988281 91.566406 213.820312 91.230469 C 213.773438 91.132812 213.414062 91.207031 213.246094 91.207031 C 213.296875 91.660156 213.246094 91.996094 213.34375 92.332031 Z M 213.34375 92.332031 " fill-opacity="1" fill-rule="nonzero"/><path fill="#477f93" d="M 216.957031 94.171875 C 216.957031 94.195312 216.957031 94.242188 216.933594 94.269531 C 217.507812 94.601562 218.082031 94.960938 218.703125 95.34375 C 218.703125 94.9375 218.703125 94.652344 218.703125 94.410156 C 218.082031 94.316406 217.507812 94.242188 216.957031 94.171875 Z M 216.957031 94.171875 " fill-opacity="1" fill-rule="nonzero"/><path fill="#477f93" d="M 159.703125 73.316406 C 160.132812 73.242188 160.515625 73.148438 160.921875 72.980469 C 161.1875 72.886719 161.425781 72.742188 161.6875 72.597656 C 160.898438 72.503906 160.203125 72.597656 159.703125 73.316406 Z M 159.703125 73.316406 " fill-opacity="1" fill-rule="nonzero"/><path fill="#477f93" d="M 151.46875 89.148438 C 151.660156 89.078125 151.851562 89.003906 152.066406 88.933594 C 151.996094 88.742188 151.921875 88.574219 151.851562 88.335938 C 151.660156 88.597656 151.515625 88.8125 151.347656 89.003906 C 151.394531 89.078125 151.421875 89.101562 151.46875 89.148438 Z M 151.46875 89.148438 " fill-opacity="1" fill-rule="nonzero"/><path fill="#477f93" d="M 213.773438 89.628906 C 212.984375 89.960938 213.367188 90.25 213.679688 90.535156 C 213.703125 90.273438 213.726562 90.011719 213.773438 89.628906 Z M 213.773438 89.628906 " fill-opacity="1" fill-rule="nonzero"/><path fill="#ffffff" d="M 230.648438 106.105469 C 230.53125 105.941406 230.386719 105.84375 230.21875 105.773438 C 230.050781 105.726562 229.835938 105.699219 229.667969 105.773438 C 228.613281 106.105469 227.585938 106.464844 226.578125 106.898438 C 225.957031 107.160156 225.359375 107.421875 224.761719 107.710938 C 223.394531 108.378906 222.054688 109.144531 220.761719 109.980469 L 216.980469 107.710938 L 216.40625 107.351562 L 217.269531 106.753906 C 217.292969 106.730469 217.316406 106.730469 217.339844 106.707031 C 217.316406 106.730469 217.292969 106.730469 217.269531 106.753906 L 217.746094 106.417969 C 218.105469 106.179688 218.179688 105.699219 217.9375 105.34375 L 217.578125 104.816406 C 217.339844 104.457031 216.863281 104.386719 216.503906 104.625 L 216.023438 104.960938 L 214.347656 106.105469 L 213.128906 105.390625 L 206.402344 101.347656 L 204.988281 100.511719 C 204.390625 100.152344 203.671875 100.078125 203.050781 100.320312 L 212.410156 109.816406 L 214.753906 114.121094 L 211.238281 116.535156 C 208.722656 118.257812 206.355469 120.195312 204.152344 122.300781 L 199.960938 119.742188 C 199.148438 119.238281 198.121094 119.261719 197.328125 119.789062 L 202.117188 124.835938 C 201.710938 125.480469 201.445312 126.03125 201.519531 126.152344 C 201.589844 126.246094 202.1875 126.152344 202.882812 125.984375 L 205.898438 132.296875 C 206.664062 131.746094 207.046875 130.792969 206.878906 129.859375 L 205.996094 125.074219 C 208.769531 123.78125 211.429688 122.253906 213.941406 120.53125 L 217.578125 118.042969 L 220.859375 121.726562 L 226.652344 133.734375 C 227.082031 133.207031 227.25 132.511719 227.128906 131.84375 L 226.796875 130.242188 L 225.261719 122.539062 L 224.976562 121.152344 L 226.628906 119.957031 L 227.105469 119.621094 C 227.441406 119.382812 227.539062 118.878906 227.273438 118.546875 L 226.890625 118.019531 C 226.652344 117.683594 226.148438 117.589844 225.8125 117.851562 L 225.335938 118.1875 C 225.382812 118.164062 225.429688 118.136719 225.480469 118.113281 C 225.429688 118.136719 225.382812 118.164062 225.335938 118.1875 L 224.496094 118.808594 L 224.355469 118.136719 L 223.515625 113.976562 C 225.289062 112.707031 226.914062 111.273438 228.421875 109.71875 C 229.1875 108.929688 229.90625 108.117188 230.578125 107.253906 C 230.695312 107.089844 230.769531 106.921875 230.769531 106.730469 C 230.792969 106.464844 230.746094 106.273438 230.648438 106.105469 Z M 230.648438 106.105469 " fill-opacity="1" fill-rule="nonzero"/><g clip-path="url(#b9df994e9c)"><path fill="#ffffff" d="M 200.441406 129.808594 C 197.546875 131.675781 194.554688 133.375 191.488281 134.90625 C 191.105469 135.097656 190.722656 135.289062 190.339844 135.457031 L 189.167969 136.003906 C 188.976562 136.101562 188.785156 136.195312 188.59375 136.269531 L 187.996094 136.53125 L 186.820312 137.058594 C 186.414062 137.226562 186.03125 137.394531 185.625 137.558594 C 185.21875 137.726562 184.835938 137.894531 184.429688 138.039062 L 183.230469 138.492188 L 182.632812 138.730469 C 182.441406 138.804688 182.226562 138.875 182.035156 138.949219 C 178.804688 140.09375 175.5 141.074219 172.148438 141.816406 C 171.933594 141.867188 171.742188 141.914062 171.527344 141.960938 L 170.90625 142.082031 C 170.472656 142.175781 170.066406 142.246094 169.636719 142.34375 C 169.203125 142.414062 168.796875 142.511719 168.367188 142.582031 C 167.9375 142.65625 167.53125 142.726562 167.097656 142.796875 C 165.398438 143.0625 163.722656 143.277344 162.023438 143.46875 C 158.625 143.851562 155.203125 144.089844 151.804688 144.113281 C 150.105469 144.113281 148.378906 144.089844 146.679688 143.945312 C 144.980469 143.800781 143.257812 143.585938 141.582031 143.230469 C 139.90625 142.847656 138.253906 142.34375 136.746094 141.484375 L 136.460938 141.316406 C 136.363281 141.265625 136.269531 141.195312 136.195312 141.148438 C 136.003906 141.027344 135.835938 140.910156 135.671875 140.789062 C 135.574219 140.71875 135.503906 140.667969 135.40625 140.597656 L 135.144531 140.382812 L 134.90625 140.167969 C 134.832031 140.09375 134.738281 140.023438 134.664062 139.953125 L 134.449219 139.710938 C 134.378906 139.640625 134.304688 139.546875 134.234375 139.472656 C 134.089844 139.304688 133.972656 139.136719 133.851562 138.949219 C 133.78125 138.851562 133.730469 138.757812 133.683594 138.660156 C 133.636719 138.566406 133.5625 138.46875 133.515625 138.375 C 133.421875 138.183594 133.324219 137.992188 133.253906 137.773438 C 132.917969 136.960938 132.773438 136.101562 132.796875 135.238281 C 132.796875 134.378906 132.941406 133.519531 133.15625 132.703125 C 133.371094 131.867188 133.683594 131.078125 134.019531 130.289062 C 134.355469 129.5 134.761719 128.757812 135.191406 128.015625 C 134.785156 128.757812 134.402344 129.523438 134.066406 130.3125 C 133.730469 131.101562 133.46875 131.890625 133.253906 132.730469 C 133.0625 133.542969 132.941406 134.402344 132.964844 135.238281 C 132.988281 136.078125 133.132812 136.914062 133.46875 137.679688 C 133.539062 137.871094 133.660156 138.0625 133.730469 138.230469 C 133.78125 138.324219 133.851562 138.398438 133.898438 138.492188 C 133.945312 138.589844 133.996094 138.683594 134.066406 138.757812 C 134.1875 138.921875 134.304688 139.089844 134.449219 139.257812 C 134.519531 139.328125 134.59375 139.425781 134.664062 139.496094 L 134.878906 139.710938 C 134.953125 139.785156 135.023438 139.855469 135.121094 139.929688 L 135.359375 140.144531 L 135.597656 140.335938 C 135.671875 140.40625 135.765625 140.453125 135.863281 140.527344 C 136.03125 140.644531 136.195312 140.765625 136.386719 140.859375 C 136.484375 140.910156 136.554688 140.980469 136.652344 141.027344 L 136.9375 141.171875 C 138.421875 141.960938 140.050781 142.4375 141.726562 142.75 C 143.378906 143.085938 145.078125 143.253906 146.753906 143.347656 C 148.453125 143.445312 150.128906 143.445312 151.828125 143.394531 C 155.226562 143.300781 158.601562 142.988281 161.953125 142.535156 C 163.628906 142.320312 165.304688 142.058594 166.980469 141.746094 C 167.386719 141.675781 167.816406 141.601562 168.222656 141.507812 C 168.628906 141.433594 169.0625 141.339844 169.46875 141.242188 C 169.875 141.148438 170.28125 141.050781 170.710938 140.957031 L 171.335938 140.8125 C 171.550781 140.765625 171.742188 140.71875 171.957031 140.667969 C 175.238281 139.855469 178.46875 138.828125 181.628906 137.632812 C 181.820312 137.558594 182.035156 137.488281 182.226562 137.417969 L 182.824219 137.175781 L 183.996094 136.699219 C 184.378906 136.53125 184.761719 136.363281 185.171875 136.195312 C 185.554688 136.027344 185.9375 135.863281 186.320312 135.695312 L 187.46875 135.167969 L 188.042969 134.90625 C 188.234375 134.808594 188.425781 134.738281 188.617188 134.640625 L 189.742188 134.066406 C 190.125 133.875 190.507812 133.683594 190.867188 133.492188 C 193.859375 131.914062 196.753906 130.191406 199.554688 128.304688 C 199.960938 128.015625 200.539062 128.136719 200.800781 128.542969 C 200.96875 128.972656 200.871094 129.523438 200.441406 129.808594 Z M 200.441406 129.808594 " fill-opacity="1" fill-rule="nonzero"/></g><g fill="#000000" fill-opacity="1"><g transform="translate(126.129206, 194.046316)"><g><path d="M 1.1875 0 L 1.1875 -0.40625 L 2.34375 -0.40625 C 3.132812 -0.40625 3.644531 -0.597656 3.875 -0.984375 C 4.101562 -1.367188 4.21875 -2.191406 4.21875 -3.453125 L 4.21875 -25.8125 C 4.21875 -27.09375 4.09375 -27.925781 3.84375 -28.3125 C 3.601562 -28.695312 3.0625 -28.890625 2.21875 -28.890625 L 1.1875 -28.890625 L 1.1875 -29.296875 L 10.828125 -29.296875 L 10.828125 -28.890625 L 9.6875 -28.890625 C 8.914062 -28.890625 8.421875 -28.703125 8.203125 -28.328125 C 7.984375 -27.960938 7.875 -27.148438 7.875 -25.890625 L 7.875 -15.546875 L 18.09375 -15.546875 L 18.09375 -25.84375 C 18.09375 -27.101562 17.984375 -27.925781 17.765625 -28.3125 C 17.546875 -28.695312 17.023438 -28.890625 16.203125 -28.890625 L 15.140625 -28.890625 L 15.140625 -29.296875 L 24.828125 -29.296875 L 24.828125 -28.890625 L 23.640625 -28.890625 C 22.835938 -28.890625 22.320312 -28.695312 22.09375 -28.3125 C 21.863281 -27.925781 21.75 -27.101562 21.75 -25.84375 L 21.75 -3.453125 C 21.75 -2.191406 21.863281 -1.367188 22.09375 -0.984375 C 22.320312 -0.597656 22.835938 -0.40625 23.640625 -0.40625 L 24.828125 -0.40625 L 24.828125 0 L 15.140625 0 L 15.140625 -0.40625 L 16.203125 -0.40625 C 17.023438 -0.40625 17.546875 -0.597656 17.765625 -0.984375 C 17.984375 -1.367188 18.09375 -2.21875 18.09375 -3.53125 L 18.09375 -15.140625 L 7.875 -15.140625 L 7.875 -3.453125 C 7.875 -2.191406 7.984375 -1.367188 8.203125 -0.984375 C 8.421875 -0.597656 8.914062 -0.40625 9.6875 -0.40625 L 10.828125 -0.40625 L 10.828125 0 Z M 1.1875 0 "/></g></g></g><g fill="#000000" fill-opacity="1"><g transform="translate(158.246924, 194.046316)"><g><path d="M 12.234375 0.40625 C 9.878906 0.40625 7.9375 -0.21875 6.40625 -1.46875 C 4.875 -2.726562 3.722656 -4.492188 2.953125 -6.765625 C 2.191406 -9.035156 1.8125 -11.691406 1.8125 -14.734375 C 1.8125 -19.460938 2.675781 -23.144531 4.40625 -25.78125 C 6.144531 -28.425781 8.765625 -29.75 12.265625 -29.75 C 15.679688 -29.75 18.265625 -28.460938 20.015625 -25.890625 C 21.773438 -23.316406 22.65625 -19.582031 22.65625 -14.6875 C 22.65625 -11.570312 22.242188 -8.882812 21.421875 -6.625 C 20.597656 -4.363281 19.410156 -2.625 17.859375 -1.40625 C 16.316406 -0.195312 14.441406 0.40625 12.234375 0.40625 Z M 12.234375 0 C 14.554688 0 16.242188 -1.160156 17.296875 -3.484375 C 18.347656 -5.804688 18.875 -9.539062 18.875 -14.6875 C 18.875 -18.132812 18.664062 -20.9375 18.25 -23.09375 C 17.84375 -25.257812 17.15625 -26.84375 16.1875 -27.84375 C 15.21875 -28.84375 13.910156 -29.34375 12.265625 -29.34375 C 9.890625 -29.34375 8.179688 -28.195312 7.140625 -25.90625 C 6.097656 -23.625 5.578125 -19.882812 5.578125 -14.6875 C 5.578125 -9.625 6.109375 -5.910156 7.171875 -3.546875 C 8.242188 -1.179688 9.929688 0 12.234375 0 Z M 12.234375 0 "/></g></g></g><g fill="#000000" fill-opacity="1"><g transform="translate(188.88808, 194.046316)"><g><path d="M 1.15625 0 L 1.15625 -0.40625 L 2.671875 -0.40625 C 3.515625 -0.40625 4.085938 -0.597656 4.390625 -0.984375 C 4.691406 -1.367188 4.84375 -2.203125 4.84375 -3.484375 L 4.84375 -25.8125 C 4.84375 -27.09375 4.703125 -27.925781 4.421875 -28.3125 C 4.148438 -28.695312 3.644531 -28.890625 2.90625 -28.890625 L 1.15625 -28.890625 L 1.15625 -29.296875 L 8.203125 -29.296875 L 15.59375 -3.28125 L 22.6875 -29.296875 L 29.421875 -29.296875 L 29.421875 -28.890625 L 28.234375 -28.890625 C 27.515625 -28.890625 27.023438 -28.695312 26.765625 -28.3125 C 26.515625 -27.925781 26.390625 -27.117188 26.390625 -25.890625 L 26.390625 -3.40625 C 26.390625 -2.175781 26.507812 -1.367188 26.75 -0.984375 C 27 -0.597656 27.546875 -0.40625 28.390625 -0.40625 L 29.421875 -0.40625 L 29.421875 0 L 19.984375 0 L 19.984375 -0.40625 L 20.640625 -0.40625 C 21.546875 -0.40625 22.125 -0.601562 22.375 -1 C 22.632812 -1.394531 22.765625 -2.265625 22.765625 -3.609375 L 22.765625 -28.03125 L 15.1875 0 L 13.21875 0 L 5.25 -27.65625 L 5.25 -3.5625 C 5.25 -2.175781 5.410156 -1.300781 5.734375 -0.9375 C 6.066406 -0.582031 6.710938 -0.40625 7.671875 -0.40625 L 9.03125 -0.40625 L 9.03125 0 Z M 1.15625 0 "/></g></g></g><g fill="#000000" fill-opacity="1"><g transform="translate(225.599551, 194.046316)"><g><path d="M 0.046875 0 L 0.046875 -0.40625 L 1.234375 -0.40625 C 1.972656 -0.40625 2.503906 -0.609375 2.828125 -1.015625 C 3.160156 -1.429688 3.503906 -2.3125 3.859375 -3.65625 L 10.59375 -29.296875 L 13.296875 -29.296875 L 20.796875 -2.34375 C 21.015625 -1.550781 21.269531 -1.03125 21.5625 -0.78125 C 21.851562 -0.53125 22.328125 -0.40625 22.984375 -0.40625 L 23.265625 -0.40625 L 23.265625 0 L 14.15625 0 L 14.15625 -0.40625 L 15.390625 -0.40625 C 16.148438 -0.40625 16.644531 -0.5 16.875 -0.6875 C 17.113281 -0.882812 17.234375 -1.160156 17.234375 -1.515625 C 17.234375 -1.847656 17.164062 -2.238281 17.03125 -2.6875 C 16.894531 -3.132812 16.769531 -3.59375 16.65625 -4.0625 L 14.96875 -10.671875 L 6.15625 -10.671875 L 4.59375 -4.765625 C 4.425781 -4.160156 4.273438 -3.570312 4.140625 -3 C 4.003906 -2.425781 3.9375 -1.957031 3.9375 -1.59375 C 3.9375 -1.15625 4.066406 -0.847656 4.328125 -0.671875 C 4.585938 -0.492188 5.0625 -0.40625 5.75 -0.40625 L 7.515625 -0.40625 L 7.515625 0 Z M 6.28125 -11.078125 L 14.859375 -11.078125 L 12.140625 -21.578125 C 11.816406 -22.921875 11.550781 -23.992188 11.34375 -24.796875 C 11.132812 -25.609375 10.96875 -26.242188 10.84375 -26.703125 C 10.726562 -27.171875 10.644531 -27.570312 10.59375 -27.90625 C 10.425781 -27.1875 10.289062 -26.59375 10.1875 -26.125 C 10.09375 -25.664062 9.984375 -25.207031 9.859375 -24.75 C 9.742188 -24.300781 9.585938 -23.722656 9.390625 -23.015625 Z M 6.28125 -11.078125 "/></g></g></g><g fill="#000000" fill-opacity="1"><g transform="translate(141.270288, 208.718072)"><g><path d="M 5.734375 -1.03125 C 5.515625 -0.664062 5.222656 -0.378906 4.859375 -0.171875 C 4.492188 0.0351562 4.113281 0.140625 3.71875 0.140625 C 3.050781 0.140625 2.5 -0.0625 2.0625 -0.46875 C 1.625 -0.882812 1.40625 -1.503906 1.40625 -2.328125 L 1.46875 -6.296875 L 0.296875 -6.296875 L 0.296875 -6.640625 L 2.4375 -8.578125 L 2.75 -8.578125 L 2.71875 -6.671875 L 2.703125 -2.59375 C 2.703125 -2.019531 2.828125 -1.59375 3.078125 -1.3125 C 3.328125 -1.03125 3.679688 -0.890625 4.140625 -0.890625 C 4.390625 -0.890625 4.617188 -0.941406 4.828125 -1.046875 C 5.046875 -1.160156 5.242188 -1.289062 5.421875 -1.4375 Z M 2.125 -6.296875 L 2.125 -7.125 L 5.234375 -7.125 L 5.234375 -6.296875 Z M 2.125 -6.296875 "/></g></g></g><g fill="#000000" fill-opacity="1"><g transform="translate(150.295591, 208.718072)"><g><path d="M 0.546875 0 L 0.5 -0.59375 L 1.53125 -0.84375 C 1.539062 -0.90625 1.550781 -1.003906 1.5625 -1.140625 C 1.570312 -1.273438 1.578125 -1.46875 1.578125 -1.71875 C 1.585938 -1.96875 1.59375 -2.269531 1.59375 -2.625 L 1.609375 -3.921875 C 1.609375 -4.285156 1.59375 -4.644531 1.5625 -5 C 1.539062 -5.363281 1.515625 -5.644531 1.484375 -5.84375 L 0.421875 -6.078125 L 0.421875 -6.625 L 2.640625 -7.234375 L 2.875 -7 L 2.8125 -5.609375 L 2.859375 -5.59375 C 3.191406 -6.238281 3.523438 -6.671875 3.859375 -6.890625 C 4.191406 -7.117188 4.515625 -7.234375 4.828125 -7.234375 C 5.085938 -7.234375 5.300781 -7.164062 5.46875 -7.03125 C 5.644531 -6.90625 5.734375 -6.71875 5.734375 -6.46875 C 5.734375 -6.21875 5.640625 -6.019531 5.453125 -5.875 C 5.273438 -5.726562 5.046875 -5.65625 4.765625 -5.65625 C 4.566406 -5.65625 4.375 -5.695312 4.1875 -5.78125 C 4.007812 -5.875 3.835938 -6 3.671875 -6.15625 L 3.96875 -6.0625 C 3.769531 -5.925781 3.578125 -5.734375 3.390625 -5.484375 C 3.203125 -5.242188 3.023438 -4.953125 2.859375 -4.609375 L 2.875 -3.078125 C 2.882812 -2.796875 2.894531 -2.507812 2.90625 -2.21875 C 2.914062 -1.925781 2.925781 -1.65625 2.9375 -1.40625 C 2.945312 -1.15625 2.957031 -0.96875 2.96875 -0.84375 L 4.421875 -0.625 L 4.390625 0 Z M 0.546875 0 "/></g></g></g><g fill="#000000" fill-opacity="1"><g transform="translate(159.735742, 208.718072)"><g><path d="M 3.25 0.140625 C 2.8125 0.140625 2.421875 0.0507812 2.078125 -0.125 C 1.734375 -0.3125 1.460938 -0.539062 1.265625 -0.8125 C 1.078125 -1.09375 0.984375 -1.378906 0.984375 -1.671875 C 0.984375 -2.035156 1.097656 -2.335938 1.328125 -2.578125 C 1.566406 -2.828125 1.972656 -3.046875 2.546875 -3.234375 L 5.0625 -4.078125 L 5.0625 -4.9375 C 5.0625 -5.207031 4.976562 -5.457031 4.8125 -5.6875 C 4.644531 -5.914062 4.421875 -6.09375 4.140625 -6.21875 C 3.867188 -6.351562 3.5625 -6.421875 3.21875 -6.421875 C 2.945312 -6.421875 2.757812 -6.363281 2.65625 -6.25 C 2.550781 -6.132812 2.488281 -5.90625 2.46875 -5.5625 L 2.4375 -4.859375 C 2.039062 -4.773438 1.703125 -4.789062 1.421875 -4.90625 C 1.148438 -5.019531 1.015625 -5.210938 1.015625 -5.484375 C 1.015625 -5.671875 1.097656 -5.859375 1.265625 -6.046875 C 1.429688 -6.234375 1.644531 -6.410156 1.90625 -6.578125 C 2.175781 -6.753906 2.460938 -6.898438 2.765625 -7.015625 C 3.066406 -7.140625 3.367188 -7.222656 3.671875 -7.265625 C 4.472656 -7.265625 5.125 -7.050781 5.625 -6.625 C 6.125 -6.207031 6.378906 -5.644531 6.390625 -4.9375 L 6.359375 -2.140625 C 6.359375 -1.941406 6.363281 -1.738281 6.375 -1.53125 C 6.394531 -1.332031 6.421875 -1.179688 6.453125 -1.078125 L 7.515625 -0.875 L 7.515625 -0.359375 L 6.703125 -0.0625 C 6.546875 0 6.398438 0.046875 6.265625 0.078125 C 6.140625 0.117188 6.03125 0.140625 5.9375 0.140625 C 5.59375 0.140625 5.375 -0.0546875 5.28125 -0.453125 L 5.09375 -1.09375 L 5.34375 -1.09375 C 4.976562 -0.6875 4.625 -0.378906 4.28125 -0.171875 C 3.945312 0.0351562 3.601562 0.140625 3.25 0.140625 Z M 3.703125 -0.84375 C 3.953125 -0.84375 4.191406 -0.898438 4.421875 -1.015625 C 4.648438 -1.140625 4.863281 -1.320312 5.0625 -1.5625 L 5.0625 -3.296875 L 3.203125 -2.8125 C 2.941406 -2.738281 2.75 -2.628906 2.625 -2.484375 C 2.507812 -2.347656 2.453125 -2.164062 2.453125 -1.9375 C 2.453125 -1.664062 2.578125 -1.414062 2.828125 -1.1875 C 3.078125 -0.957031 3.367188 -0.84375 3.703125 -0.84375 Z M 3.703125 -0.84375 "/></g></g></g><g fill="#000000" fill-opacity="1"><g transform="translate(171.001227, 208.718072)"><g><path d="M 3.65625 0.0625 L 0.71875 -6.296875 L -0.0625 -6.546875 L -0.03125 -7.140625 L 3.203125 -7.140625 L 3.234375 -6.546875 L 2.203125 -6.296875 L 4.484375 -1.25 L 4.046875 -1.234375 L 6.140625 -6.296875 L 5.109375 -6.546875 L 5.140625 -7.140625 L 7.90625 -7.140625 L 7.9375 -6.546875 L 7.15625 -6.296875 L 4.15625 0.0625 Z M 3.65625 0.0625 "/></g></g></g><g fill="#000000" fill-opacity="1"><g transform="translate(182.233522, 208.718072)"><g><path d="M 4.125 0.140625 C 3.476562 0.140625 2.894531 -0.00390625 2.375 -0.296875 C 1.851562 -0.585938 1.441406 -1 1.140625 -1.53125 C 0.847656 -2.070312 0.703125 -2.707031 0.703125 -3.4375 C 0.703125 -4.21875 0.859375 -4.894531 1.171875 -5.46875 C 1.492188 -6.050781 1.914062 -6.5 2.4375 -6.8125 C 2.957031 -7.125 3.519531 -7.273438 4.125 -7.265625 C 4.976562 -7.253906 5.648438 -6.96875 6.140625 -6.40625 C 6.628906 -5.851562 6.875 -5.054688 6.875 -4.015625 L 6.875 -3.71875 L 1.78125 -3.71875 L 1.78125 -4.453125 L 5.78125 -4.453125 L 5.59375 -4.234375 L 5.59375 -4.578125 C 5.59375 -5.210938 5.453125 -5.703125 5.171875 -6.046875 C 4.890625 -6.398438 4.492188 -6.578125 3.984375 -6.578125 C 3.671875 -6.578125 3.367188 -6.484375 3.078125 -6.296875 C 2.796875 -6.117188 2.566406 -5.84375 2.390625 -5.46875 C 2.210938 -5.101562 2.125 -4.632812 2.125 -4.0625 L 2.125 -3.875 C 2.125 -2.957031 2.347656 -2.242188 2.796875 -1.734375 C 3.242188 -1.234375 3.820312 -0.984375 4.53125 -0.984375 C 4.925781 -0.984375 5.273438 -1.054688 5.578125 -1.203125 C 5.890625 -1.347656 6.1875 -1.597656 6.46875 -1.953125 L 6.890625 -1.578125 C 6.578125 -1.003906 6.179688 -0.570312 5.703125 -0.28125 C 5.234375 0 4.707031 0.140625 4.125 0.140625 Z M 4.125 0.140625 "/></g></g></g><g fill="#000000" fill-opacity="1"><g transform="translate(193.100754, 208.718072)"><g><path d="M 0.46875 0 L 0.4375 -0.609375 L 1.515625 -0.84375 C 1.535156 -0.96875 1.546875 -1.15625 1.546875 -1.40625 C 1.554688 -1.65625 1.566406 -1.988281 1.578125 -2.40625 C 1.585938 -2.820312 1.59375 -3.335938 1.59375 -3.953125 L 1.59375 -6.03125 C 1.59375 -6.4375 1.585938 -6.859375 1.578125 -7.296875 C 1.578125 -7.742188 1.570312 -8.164062 1.5625 -8.5625 C 1.5625 -8.96875 1.554688 -9.3125 1.546875 -9.59375 C 1.535156 -9.875 1.53125 -10.054688 1.53125 -10.140625 L 0.296875 -10.3125 L 0.265625 -10.84375 L 2.640625 -11.515625 L 2.953125 -11.296875 C 2.941406 -10.816406 2.929688 -10.347656 2.921875 -9.890625 C 2.910156 -9.429688 2.898438 -8.914062 2.890625 -8.34375 C 2.890625 -7.78125 2.890625 -7.101562 2.890625 -6.3125 L 2.875 -3.640625 C 2.875 -2.984375 2.878906 -2.390625 2.890625 -1.859375 C 2.910156 -1.335938 2.929688 -1 2.953125 -0.84375 L 4.03125 -0.609375 L 4 0 Z M 0.46875 0 "/></g></g></g><g fill="#000000" fill-opacity="1"><g transform="translate(200.964481, 208.718072)"><g/></g></g><g fill="#000000" fill-opacity="1"><g transform="translate(207.550475, 208.718072)"><g><path d="M 4.09375 0.140625 C 3.476562 0.140625 2.910156 0 2.390625 -0.28125 C 1.867188 -0.570312 1.453125 -0.984375 1.140625 -1.515625 C 0.835938 -2.054688 0.6875 -2.695312 0.6875 -3.4375 C 0.6875 -4.15625 0.847656 -4.800781 1.171875 -5.375 C 1.492188 -5.957031 1.9375 -6.414062 2.5 -6.75 C 3.070312 -7.09375 3.71875 -7.265625 4.4375 -7.265625 C 4.914062 -7.265625 5.320312 -7.203125 5.65625 -7.078125 C 5.988281 -6.960938 6.238281 -6.804688 6.40625 -6.609375 C 6.582031 -6.410156 6.671875 -6.203125 6.671875 -5.984375 C 6.671875 -5.804688 6.613281 -5.65625 6.5 -5.53125 C 6.394531 -5.414062 6.242188 -5.359375 6.046875 -5.359375 C 5.859375 -5.359375 5.703125 -5.390625 5.578125 -5.453125 C 5.453125 -5.523438 5.289062 -5.660156 5.09375 -5.859375 L 4.25 -6.703125 L 4.84375 -6.546875 C 4.40625 -6.640625 3.976562 -6.59375 3.5625 -6.40625 C 3.15625 -6.226562 2.816406 -5.914062 2.546875 -5.46875 C 2.285156 -5.019531 2.15625 -4.441406 2.15625 -3.734375 C 2.15625 -2.847656 2.378906 -2.164062 2.828125 -1.6875 C 3.273438 -1.21875 3.835938 -0.984375 4.515625 -0.984375 C 4.929688 -0.984375 5.289062 -1.054688 5.59375 -1.203125 C 5.90625 -1.359375 6.195312 -1.609375 6.46875 -1.953125 L 6.921875 -1.578125 C 6.609375 -1.003906 6.210938 -0.570312 5.734375 -0.28125 C 5.265625 0 4.71875 0.140625 4.09375 0.140625 Z M 4.09375 0.140625 "/></g></g></g><g fill="#000000" fill-opacity="1"><g transform="translate(218.002856, 208.718072)"><g><path d="M 4.265625 0.140625 C 3.546875 0.140625 2.914062 -0.015625 2.375 -0.328125 C 1.84375 -0.640625 1.425781 -1.070312 1.125 -1.625 C 0.832031 -2.1875 0.6875 -2.828125 0.6875 -3.546875 C 0.6875 -4.304688 0.847656 -4.960938 1.171875 -5.515625 C 1.492188 -6.066406 1.9375 -6.492188 2.5 -6.796875 C 3.0625 -7.109375 3.671875 -7.265625 4.328125 -7.265625 C 5.015625 -7.265625 5.613281 -7.113281 6.125 -6.8125 C 6.632812 -6.507812 7.03125 -6.082031 7.3125 -5.53125 C 7.601562 -4.988281 7.75 -4.351562 7.75 -3.625 C 7.75 -2.925781 7.59375 -2.289062 7.28125 -1.71875 C 6.976562 -1.144531 6.5625 -0.691406 6.03125 -0.359375 C 5.507812 -0.0234375 4.921875 0.140625 4.265625 0.140625 Z M 4.4375 -0.640625 C 4.8125 -0.640625 5.132812 -0.753906 5.40625 -0.984375 C 5.6875 -1.210938 5.90625 -1.53125 6.0625 -1.9375 C 6.21875 -2.34375 6.296875 -2.804688 6.296875 -3.328125 C 6.296875 -4.273438 6.097656 -5.046875 5.703125 -5.640625 C 5.304688 -6.234375 4.789062 -6.53125 4.15625 -6.53125 C 3.550781 -6.53125 3.066406 -6.28125 2.703125 -5.78125 C 2.347656 -5.289062 2.171875 -4.628906 2.171875 -3.796875 C 2.171875 -3.179688 2.265625 -2.632812 2.453125 -2.15625 C 2.648438 -1.675781 2.921875 -1.300781 3.265625 -1.03125 C 3.609375 -0.769531 4 -0.640625 4.4375 -0.640625 Z M 4.4375 -0.640625 "/></g></g></g><g fill="#000000" fill-opacity="1"><g transform="translate(229.832532, 208.718072)"><g><path d="M 1.9375 0.171875 C 1.644531 0.171875 1.394531 0.0703125 1.1875 -0.125 C 0.988281 -0.320312 0.890625 -0.566406 0.890625 -0.859375 C 0.890625 -1.046875 0.929688 -1.210938 1.015625 -1.359375 C 1.109375 -1.515625 1.234375 -1.632812 1.390625 -1.71875 C 1.554688 -1.8125 1.734375 -1.859375 1.921875 -1.859375 C 2.234375 -1.859375 2.488281 -1.765625 2.6875 -1.578125 C 2.882812 -1.390625 2.984375 -1.148438 2.984375 -0.859375 C 2.984375 -0.566406 2.882812 -0.320312 2.6875 -0.125 C 2.488281 0.0703125 2.238281 0.171875 1.9375 0.171875 Z M 1.9375 0.171875 "/></g></g></g></svg>